# xmcd
#
# Track frame offsets:
#	150
#	16737
#	34130
#	52722
#	70485
#	88512
#	105850
#	124622
#	142952
#	161160
#	168112
#	208035
#	229375
#	248262
#	274972
#
# Disc length: 3874 seconds
#
# Revision: 6
# Processed by: cddbd v1.5.2PL0 Copyright (c) Steve Scherf et al.
# Submitted via: audiograbber 1.83.01
#
DISCID=bb0f200f
DTITLE=WILSON PHILLIPS - TQM - Greatest Hits
DYEAR=2000
DGENRE=Pop
TTITLE0=Hold On (Single Edit)
TTITLE1=You Won't See Me Cry (LP Version)
TTITLE2=You're In Love (Single - Radio Edit)
TTITLE3=Impulsive (Single Edit)
TTITLE4=Give It Up (New Extended Radio 7'')
TTITLE5=Release Me (Single Version)
TTITLE6=The Dream Is Still Alive (AC Remix)
TTITLE7=Flesh And Blood (Single Edit)
TTITLE8=Daniel (LP Version)
TTITLE9=A Conversation With Wilson Phillips
TTITLE10=Hotel California (Live In Japan)
TTITLE11=Hold On (Live In Japan)
TTITLE12=Naked And Sacred (LP Version) - Chynna Phillips
TTITLE13=Miracle (LP Version) - The Wilsons
TTITLE14=Everything I Need (LP Version) - The Wilsons
EXTD=
EXTT0=
EXTT1=
EXTT2=
EXTT3=
EXTT4=
EXTT5=
EXTT6=
EXTT7=
EXTT8=
EXTT9=
EXTT10=
EXTT11=
EXTT12=
EXTT13=
EXTT14=
PLAYORDER=
